<?xml version="1.0" encoding="utf-8"?><svg xmlns="http://www.w3.org/2000/svg" xmlns:xlink="http://www.w3.org/1999/xlink" viewBox="0 0 230 158">

    <g xmlns="http://www.w3.org/2000/svg" clip-path="url(#ayclip0_972_8626)" fill-rule="evenodd" clip-rule="evenodd" fill="#fff"><path d="M46.157 110.084l1.417-1.701c.978.811 2.006 1.326 3.252 1.326.98 0 1.572-.39 1.572-1.029v-.032c0-.607-.374-.919-2.195-1.387-2.196-.561-3.61-1.17-3.61-3.339v-.03c0-1.979 1.587-3.291 3.812-3.291a6.295 6.295 0 014.048 1.39l-1.246 1.808c-.964-.672-1.914-1.077-2.834-1.077-.92 0-1.4.422-1.4.951v.038c0 .717.468.951 2.35 1.436 2.212.575 3.456 1.372 3.456 3.274v.031c0 2.168-1.65 3.384-4 3.384a6.94 6.94 0 01-4.63-1.746l.008-.006zM66.208 106.241v-.032c0-1.87-1.37-3.43-3.299-3.43-1.928 0-3.269 1.529-3.269 3.399v.031c0 1.872 1.368 3.432 3.299 3.432 1.93 0 3.269-1.528 3.269-3.4zm-9.075 0v-.032c0-3.103 2.444-5.646 5.806-5.646 3.361 0 5.776 2.513 5.776 5.615v.031c0 3.104-2.444 5.646-5.806 5.646s-5.776-2.511-5.776-5.614zM71.469 100.757h2.21l5.105 6.723v-6.723h2.366v10.917h-2.04l-5.275-6.939v6.939h-2.366v-10.917zM84.216 106.241v-.032c0-3.103 2.412-5.646 5.713-5.646 1.96 0 3.142.532 4.28 1.497l-1.512 1.826c-.842-.702-1.587-1.107-2.848-1.107-1.743 0-3.129 1.543-3.129 3.399v.031c0 1.997 1.37 3.464 3.301 3.464a3.816 3.816 0 002.257-.656v-1.56h-2.42v-2.06h4.731v4.742a7.07 7.07 0 01-4.654 1.731c-3.393 0-5.728-2.387-5.728-5.614l.009-.015zM102.949 106.241v-.032c0-3.103 2.335-5.646 5.684-5.646 2.055 0 3.286.688 4.296 1.687l-1.526 1.762c-.842-.763-1.696-1.231-2.785-1.231-1.838 0-3.157 1.529-3.157 3.399v.031c0 1.872 1.292 3.433 3.157 3.433 1.244 0 2.006-.5 2.863-1.28l1.526 1.545c-1.122 1.2-2.366 1.948-4.467 1.948-3.206 0-5.587-2.479-5.587-5.614l-.004-.002zM124.134 106.241v-.032c0-1.87-1.371-3.43-3.301-3.43-1.931 0-3.269 1.529-3.269 3.399v.031c0 1.872 1.37 3.432 3.3 3.432 1.931 0 3.27-1.528 3.27-3.4zm-9.075 0v-.032c0-3.103 2.444-5.646 5.805-5.646 3.362 0 5.775 2.513 5.775 5.615v.031c0 3.104-2.444 5.646-5.806 5.646s-5.774-2.511-5.774-5.614zM129.398 100.757h2.211l5.105 6.723v-6.723h2.366v10.917h-2.04l-5.275-6.939v6.939h-2.367v-10.917zM144.933 102.973h-3.316v-2.216h9.027v2.216h-3.314v8.701h-2.397v-8.701zM153.418 100.757h8.218v2.138h-5.837v2.214h5.136v2.137h-5.136v2.292h5.915v2.136h-8.296v-10.917zM164.02 110.084l1.417-1.701c.981.811 2.008 1.326 3.254 1.326.979 0 1.571-.39 1.571-1.029v-.032c0-.607-.373-.919-2.194-1.387-2.195-.561-3.612-1.17-3.612-3.339v-.03c0-1.979 1.585-3.291 3.812-3.291a6.289 6.289 0 014.046 1.39l-1.244 1.808c-.966-.672-1.916-1.077-2.833-1.077-.918 0-1.4.422-1.4.951v.038c0 .717.465.951 2.349 1.436 2.21.575 3.457 1.372 3.457 3.274v.031c0 2.168-1.651 3.384-4 3.384a6.939 6.939 0 01-4.631-1.746M177.952 102.973h-3.315v-2.216h9.026v2.216h-3.315v8.701h-2.396v-8.701zM188.296 85.917c-2.81-.143-4.421-3.472-4.21-6.877.343-5.998 5.347-12.053 5.347-12.053 1.168 1.067 4.683 6.856 4.492 11.285-.188 4.329-2.815 7.786-5.621 7.645h-.008zm3.343-20.924c1.208-1.409 2.035-2.231 1.848-3.207-.187-.976-3.488-1.655-4.96-.295-4.347-3.458-3.456.592-2.827 1.495-5.136 3.62-8.612 13.145-5.816 20.578 2.737 7.267 10.978 8.164 15.302 3.057 3.827-4.522 3.143-12.835-3.547-21.628zM30.63 50.547c-9.683-.705-20.4 7.339-19.998 17.753a2.044 2.044 0 002.105 1.915c1.499 0 5.894-.167 5.894-.167S9.97 76.889 9.97 84.901c0 4.227 3.157 9.289 9.772 9.289 9.262 0 16.162-7.59 16.148-14.03 0-.49-.56-1.181-1.474-.083-1.436 1.744-9.132 9.662-16.737 9.662-2.554 0-4.775-1.446-4.775-4.505 0-4.006 6.33-11.794 17.211-14.853 2.665-.778 2.887-4.505-.498-4.672-3.33-.158-14.825 1.107-15.658 1.107-.834 0-.907-.181-.61-.947.389-1.001 4.607-8.399 17.261-9.79 4.276-.333 3.848-5.26.017-5.539l.004.007zM44.331 62.711c0-2.515-3.728-4.06-5.132-.5-2.705 6.86-3.528 27.642 5.526 27.642 3.974 0 9.052-8.726 9.052-17.243 0-7.023-2.87-11.615-3.478-12.44-.608-.824-1.433-.387-1.324 1.162.11 1.55.552 15.874-3.92 21.083-1.766 1.935-3.067-.08-3.256-1.99-.552-5.587 2.539-14.05 2.539-17.71l-.007-.004zM85.708 85.034c-2.543 0-3.956-3.29-3.956-6.863 0-6.295 4.52-12.017 4.52-12.017 1.242 1.59 4.235 6.07 4.235 10.607 0 4.537-2.26 8.281-4.8 8.281v-.008zm2.031-20.872s1.438-1.957.573-3.06c-.97-1.243-4.086-1.629-7.004 1.645-3.842 4.311-6.526 13.407-3.623 21.038 2.781 7.3 10.57 7.915 14.178 2.385 3.219-4.938 2.372-13.162-4.124-22.008z"/><path d="M62.194 71.606c.223-2.837.444-5.785.444-5.785s6.33-1.615 8.494-1.391c1.894.194 2.277 1.001 1.317 2.494-2.26 3.516-7.458 4.733-10.255 4.682zM75.78 90.43c-2.707-3.766-6.105-11.3-11.31-15.865 5.274-.333 11.88-4.448 11.88-8.844 0-3.255-3.378-5.6-7.763-5.6s-9.225 1.476-11.056 2.596c-2.387 1.391-.61 4.672 1.61 3.784 0 0-.842 3.892-1.052 5.952-1.804-.224-2.167.11-2.055.5.112.39.888.722 1.777 1.836-.278 2.447-.77 13.33-.66 14.277.112.946.685 1.115 1.5.11.722-.888 2.269-3.04 2.989-11.162.842.723 3.109 3.778 5.894 7.343 4.071 5.229 5.414 5.606 7.088 6.194.9.32 1.831-.198 1.168-1.121h-.01zM99.344 66.766c.116-10.4 5.518-13.656 8.461-13.656 4.109 0 5.805 3.142 6.081 4.533.276 1.392 1.834 2.503 2.333.224.499-2.28 5.334-9.235 11.274-9.235 5.44 0 7.324 5.621 7.158 10.403-.444 13.016-17.182 23.401-19.384 29.964-1.962-3.974-16.066-9.717-15.927-22.233h.004zm30.092-21.36c-4.885 0-10.664 3.616-14.16 9.623-.944-2.17-4.307-4.533-8.303-4.533-3.221 0-12.262 4.033-12.262 17.05 0 16.798 16.963 20.239 20.394 25.47.234.358.994.632 1.284-.228 2.737-8.092 23.954-17.233 23.954-33.699 0-9.234-6.021-13.682-10.907-13.682zM143.237 60.83c.148 5.655-4.814 14.645-5.132 21.206-.231 4.783.632 6.716 1.032 7.347.4.63 1.355.717 1.604-.483.743-3.584 5.852-13.031 6.507-20.63.4-4.656-1.04-7.505-2.701-8.044-.741-.24-1.331-.15-1.31.605zM161.741 60.11c-6.947 0-11.948 2.467-11.948 8.066 0 3.45 2.553 5.821 6.624 6.49 2.371.444 4.676.62 5.516.927 1.52.554-2.118 2.308-7.774 6.152-3.867 2.627-6.69 5.403-8.21 8.35-.522 1.019.185 1.995 1.278 1.24 2.122-1.463 6.772-3.902 11.283-6.39 4.292-2.367 8.336-4.967 8.336-8.203 0-2.93-2.193-4.035-3.886-4.227-2.924-.333-9.262-.074-9.262-3.746 0-1.373 1.812-3.163 7.643-3.163 4.497 0 4.044-5.481.381-5.481M170.48 61.124c2.272 4.368-1.593 16.252-1.593 20.766 0 4.514.507 6.114 1.701 7.569.61.75 1.41.301 1.473-.508.371-3.98 4.631-14.781 4.911-19.799.352-6.392-2.797-8.87-4.643-9.026-1.024-.086-2.375.1-1.859.998M172.047 54.968c-.116 4.161 6.812 4.834 6.812-.255 0-4.428-3.703-8.105-4.446-8.716-1.156-.944-2.792-.774-2.406.753.886 3.2.08 6.763.04 8.222M219.585 89.421c-.906-5.591.338-12.785.338-19.565 0-5.175-4.292-7.836-6.839-7.836-3.309 0-5.275 1.495-5.275 1.495.038-.985.21-2.5.176-2.977-.037-.548-.69-.548-1.637-.038-5.202 3.245-5.953 12.55-5.953 19.002 0 6.45 1.025 8.738 1.132 9.611.103.83 1.122.955 1.522.226 2.766-5.395 3.088-15.218 4.033-20.686 1.31-1.786 6.657-2.109 6.876 2.152.223 4.339-.196 15.31 4.235 19.141.598.514 1.522.278 1.392-.525z"/></g>
</svg>
